<svg width="144" height="45" viewBox="0 0 144 45" fill="none" xmlns="http://www.w3.org/2000/svg">
<path d="M27.301 42V41H0.500977V42H27.301Z" fill="#444444"/>
<path d="M36.4025 43.5H35.3019L34.8644 42.3618H32.8615L32.4479 43.5H31.3747L33.3264 38.4893H34.3962L36.4025 43.5ZM34.5397 41.5176L33.8493 39.6582L33.1725 41.5176H34.5397ZM40.2375 43.5H39.277V41.6475C39.277 41.2555 39.2565 41.0026 39.2155 40.8887C39.1745 40.7725 39.1073 40.6825 39.0139 40.6187C38.9227 40.5549 38.8122 40.5229 38.6823 40.5229C38.516 40.5229 38.3667 40.5685 38.2346 40.6597C38.1024 40.7508 38.0112 40.8716 37.9611 41.022C37.9133 41.1724 37.8893 41.4504 37.8893 41.856V43.5H36.9289V39.8701H37.821V40.4033C38.1377 39.9932 38.5365 39.7881 39.0173 39.7881C39.2292 39.7881 39.4229 39.8268 39.5983 39.9043C39.7738 39.9795 39.9059 40.0763 39.9948 40.1948C40.086 40.3133 40.1486 40.4478 40.1828 40.5981C40.2193 40.7485 40.2375 40.9639 40.2375 41.2441V43.5Z" fill="#444444"/>
<path d="M49.6055 41.4971H46.7993V40.6016H49.6055V41.4971ZM50.0054 43.5H46.7993C46.6763 43.5 46.5419 43.4784 46.396 43.4351C46.2502 43.3918 46.1146 43.3211 45.9893 43.2231C45.8662 43.1229 45.7626 42.9941 45.6783 42.8369C45.5962 42.6774 45.5552 42.4826 45.5552 42.2524V39.0464C45.5552 38.9849 45.5666 38.9268 45.5894 38.8721C45.6122 38.8174 45.6429 38.7695 45.6817 38.7285C45.7227 38.6875 45.7705 38.6556 45.8252 38.6328C45.8799 38.61 45.9392 38.5986 46.003 38.5986H50.0054V39.4873H46.4439V42.2524C46.4439 42.3687 46.4746 42.4575 46.5362 42.519C46.5977 42.5806 46.6877 42.6113 46.8062 42.6113H50.0054V43.5ZM56.1147 43.1206C56.1147 43.1844 56.1021 43.2437 56.0771 43.2983C56.0543 43.353 56.0224 43.4009 55.9814 43.4419C55.9426 43.4806 55.8959 43.5114 55.8412 43.5342C55.7866 43.557 55.7284 43.5684 55.6669 43.5684C55.6122 43.5684 55.5564 43.5581 55.4994 43.5376C55.4448 43.5171 55.3958 43.484 55.3525 43.4385L52.1054 40.0479V43.5H51.2167V38.978C51.2167 38.8869 51.2418 38.8049 51.2919 38.7319C51.3443 38.6567 51.4104 38.6009 51.4902 38.5645C51.5745 38.5303 51.6611 38.5223 51.7499 38.5405C51.8388 38.5565 51.9151 38.5975 51.9789 38.6636L55.226 42.0508V38.5986H56.1147V43.1206ZM62.3846 40.6494C62.3846 40.8522 62.3595 41.0334 62.3094 41.1929C62.2593 41.3524 62.1909 41.4937 62.1043 41.6167C62.02 41.7375 61.922 41.8411 61.8104 41.9277C61.6987 42.0143 61.5814 42.085 61.4583 42.1396C61.3376 42.1943 61.2145 42.2342 61.0892 42.2593C60.9661 42.2843 60.8499 42.2969 60.7406 42.2969H58.7308V41.4082H60.7406C60.8545 41.3991 60.957 41.3763 61.0482 41.3398C61.1416 41.3011 61.2213 41.2498 61.2874 41.186C61.3535 41.1222 61.4048 41.0459 61.4412 40.957C61.4777 40.8659 61.4959 40.7633 61.4959 40.6494V40.2461C61.4845 40.1344 61.4606 40.0319 61.4241 39.9385C61.3877 39.8451 61.3376 39.7653 61.2738 39.6992C61.2122 39.6331 61.137 39.5819 61.0482 39.5454C60.9593 39.5067 60.8568 39.4873 60.7406 39.4873H58.7376C58.6191 39.4873 58.5291 39.5181 58.4676 39.5796C58.4061 39.6411 58.3753 39.73 58.3753 39.8462V43.5H57.4866V39.8462C57.4866 39.6183 57.5277 39.4246 57.6097 39.2651C57.694 39.1056 57.7977 38.9769 57.9207 38.8789C58.0461 38.7809 58.1816 38.7103 58.3275 38.667C58.4733 38.6214 58.6077 38.5986 58.7308 38.5986H60.7406C60.9411 38.5986 61.1211 38.6248 61.2806 38.6772C61.4401 38.7274 61.5802 38.7957 61.701 38.8823C61.8241 38.9666 61.9277 39.0646 62.012 39.1763C62.0986 39.2879 62.1693 39.4053 62.224 39.5283C62.2809 39.6491 62.3219 39.7721 62.347 39.8975C62.3721 40.0205 62.3846 40.1367 62.3846 40.2461V40.6494ZM68.3948 40.2461C68.3948 40.4489 68.3697 40.63 68.3196 40.7896C68.2694 40.9491 68.2011 41.0903 68.1145 41.2134C68.0302 41.3341 67.9322 41.4378 67.8205 41.5244C67.7089 41.611 67.5915 41.6828 67.4685 41.7397C67.3477 41.7944 67.2247 41.8343 67.0993 41.8594C66.9763 41.8844 66.8601 41.897 66.7507 41.897L68.6067 43.5H67.2326L65.3801 41.897H64.7409V41.0083H66.7507C66.8624 40.9992 66.9638 40.9764 67.0549 40.9399C67.1483 40.9012 67.2281 40.8499 67.2942 40.7861C67.3625 40.7223 67.4149 40.646 67.4514 40.5571C67.4879 40.466 67.5061 40.3623 67.5061 40.2461V39.6855C67.5061 39.6354 67.4992 39.5978 67.4856 39.5728C67.4742 39.5454 67.4582 39.526 67.4377 39.5146C67.4195 39.501 67.399 39.493 67.3762 39.4907C67.3557 39.4884 67.3363 39.4873 67.3181 39.4873H64.3855V43.5H63.4968V39.0464C63.4968 38.9849 63.5082 38.9268 63.531 38.8721C63.5538 38.8174 63.5845 38.7695 63.6233 38.7285C63.6643 38.6875 63.7121 38.6556 63.7668 38.6328C63.8215 38.61 63.8808 38.5986 63.9446 38.5986H67.3181C67.5163 38.5986 67.6838 38.6351 67.8205 38.708C67.9573 38.7786 68.0678 38.8687 68.1521 38.978C68.2387 39.0851 68.3002 39.2013 68.3366 39.3267C68.3754 39.452 68.3948 39.5693 68.3948 39.6787V40.2461ZM74.7809 41.5176C74.7809 41.8161 74.7296 42.0907 74.6271 42.3413C74.5245 42.592 74.3821 42.8084 74.1998 42.9907C74.0175 43.173 73.8011 43.3154 73.5504 43.418C73.302 43.5182 73.0309 43.5684 72.7369 43.5684H71.5338C71.2399 43.5684 70.9676 43.5182 70.7169 43.418C70.4663 43.3154 70.2498 43.173 70.0675 42.9907C69.8852 42.8084 69.7417 42.592 69.6368 42.3413C69.5343 42.0907 69.483 41.8161 69.483 41.5176V40.5811C69.483 40.2848 69.5343 40.0114 69.6368 39.7607C69.7417 39.5078 69.8852 39.2913 70.0675 39.1113C70.2498 38.929 70.4663 38.7866 70.7169 38.6841C70.9676 38.5815 71.2399 38.5303 71.5338 38.5303H72.7369C73.0309 38.5303 73.302 38.5815 73.5504 38.6841C73.8011 38.7866 74.0175 38.929 74.1998 39.1113C74.3821 39.2913 74.5245 39.5078 74.6271 39.7607C74.7296 40.0114 74.7809 40.2848 74.7809 40.5811V41.5176ZM73.8922 40.5811C73.8922 40.4056 73.8637 40.2472 73.8068 40.106C73.7521 39.9624 73.6735 39.8405 73.5709 39.7402C73.4707 39.6377 73.3488 39.5591 73.2052 39.5044C73.0639 39.4474 72.9078 39.4189 72.7369 39.4189H71.5338C71.3606 39.4189 71.2023 39.4474 71.0587 39.5044C70.9174 39.5591 70.7955 39.6377 70.693 39.7402C70.5905 39.8405 70.5107 39.9624 70.4537 40.106C70.3991 40.2472 70.3717 40.4056 70.3717 40.5811V41.5176C70.3717 41.693 70.3991 41.8525 70.4537 41.9961C70.5107 42.1374 70.5905 42.2593 70.693 42.3618C70.7955 42.4621 70.9174 42.5407 71.0587 42.5977C71.2023 42.6523 71.3606 42.6797 71.5338 42.6797H72.7301C72.9033 42.6797 73.0605 42.6523 73.2018 42.5977C73.3453 42.5407 73.4684 42.4621 73.5709 42.3618C73.6735 42.2593 73.7521 42.1374 73.8068 41.9961C73.8637 41.8525 73.8922 41.693 73.8922 41.5176V40.5811Z" fill="#444444"/>
<path d="M82.3504 41.6577L83.3314 41.9688C83.181 42.5156 82.9304 42.9224 82.5795 43.189C82.2308 43.4533 81.7876 43.5854 81.2499 43.5854C80.5845 43.5854 80.0376 43.3587 79.6092 42.9053C79.1809 42.4495 78.9667 41.8275 78.9667 41.0391C78.9667 40.2051 79.182 39.5579 79.6127 39.0977C80.0433 38.6351 80.6096 38.4038 81.3114 38.4038C81.9243 38.4038 82.4222 38.585 82.805 38.9473C83.0329 39.1615 83.2038 39.4691 83.3177 39.8701L82.3163 40.1094C82.257 39.8496 82.1328 39.6445 81.9437 39.4941C81.7569 39.3438 81.529 39.2686 81.2601 39.2686C80.8887 39.2686 80.5868 39.4019 80.3544 39.6685C80.1242 39.9351 80.0091 40.3669 80.0091 40.9639C80.0091 41.5973 80.1231 42.0485 80.3509 42.3174C80.5788 42.5863 80.875 42.7207 81.2396 42.7207C81.5085 42.7207 81.7398 42.6353 81.9335 42.4644C82.1271 42.2935 82.2661 42.0246 82.3504 41.6577ZM84.324 41.6338C84.324 41.3148 84.4026 41.006 84.5598 40.7075C84.717 40.409 84.9392 40.1812 85.2263 40.0239C85.5157 39.8667 85.8381 39.7881 86.1936 39.7881C86.7428 39.7881 87.1928 39.967 87.5437 40.3247C87.8946 40.6802 88.0701 41.1302 88.0701 41.6748C88.0701 42.224 87.8923 42.6797 87.5369 43.042C87.1837 43.402 86.7382 43.582 86.2004 43.582C85.8678 43.582 85.5499 43.5068 85.2468 43.3564C84.9461 43.2061 84.717 42.9862 84.5598 42.6968C84.4026 42.4051 84.324 42.0508 84.324 41.6338ZM85.3084 41.6851C85.3084 42.0451 85.3938 42.3208 85.5647 42.5122C85.7356 42.7036 85.9464 42.7993 86.197 42.7993C86.4477 42.7993 86.6573 42.7036 86.8259 42.5122C86.9968 42.3208 87.0823 42.0428 87.0823 41.6782C87.0823 41.3228 86.9968 41.0493 86.8259 40.8579C86.6573 40.6665 86.4477 40.5708 86.197 40.5708C85.9464 40.5708 85.7356 40.6665 85.5647 40.8579C85.3938 41.0493 85.3084 41.325 85.3084 41.6851ZM89.1037 39.8701H89.9889V40.3657C90.3057 39.9806 90.6828 39.7881 91.1203 39.7881C91.3527 39.7881 91.5544 39.8359 91.7253 39.9316C91.8961 40.0273 92.0363 40.172 92.1457 40.3657C92.3052 40.172 92.4772 40.0273 92.6618 39.9316C92.8463 39.8359 93.0434 39.7881 93.2531 39.7881C93.5197 39.7881 93.7453 39.8428 93.9298 39.9521C94.1144 40.0592 94.2523 40.2176 94.3434 40.4272C94.4095 40.5822 94.4425 40.8328 94.4425 41.1792V43.5H93.4821V41.4253C93.4821 41.0653 93.449 40.8328 93.383 40.728C93.2941 40.5913 93.1574 40.5229 92.9728 40.5229C92.8384 40.5229 92.7119 40.564 92.5934 40.646C92.4749 40.728 92.3895 40.8488 92.3371 41.0083C92.2847 41.1655 92.2585 41.415 92.2585 41.7568V43.5H91.298V41.5107C91.298 41.1576 91.2809 40.9297 91.2467 40.8271C91.2126 40.7246 91.159 40.6483 91.0861 40.5981C91.0155 40.548 90.9186 40.5229 90.7956 40.5229C90.6475 40.5229 90.5142 40.5628 90.3957 40.6426C90.2772 40.7223 90.1917 40.8374 90.1393 40.9878C90.0892 41.1382 90.0641 41.3877 90.0641 41.7363V43.5H89.1037V39.8701ZM95.7256 39.8701H96.6211V40.4033C96.7374 40.221 96.8946 40.0729 97.0928 39.959C97.2911 39.8451 97.511 39.7881 97.7525 39.7881C98.174 39.7881 98.5318 39.9533 98.8257 40.2837C99.1197 40.6141 99.2667 41.0744 99.2667 41.6646C99.2667 42.2707 99.1185 42.7424 98.8223 43.0796C98.5261 43.4146 98.1672 43.582 97.7457 43.582C97.5451 43.582 97.3628 43.5422 97.1988 43.4624C97.037 43.3826 96.8661 43.2459 96.6861 43.0522V44.8809H95.7256V39.8701ZM96.6758 41.6235C96.6758 42.0314 96.7567 42.3333 96.9185 42.5293C97.0803 42.723 97.2774 42.8198 97.5098 42.8198C97.7331 42.8198 97.9188 42.731 98.0669 42.5532C98.2151 42.3732 98.2891 42.0793 98.2891 41.6714C98.2891 41.2909 98.2128 41.0083 98.0601 40.8237C97.9074 40.6392 97.7183 40.5469 97.4927 40.5469C97.258 40.5469 97.0632 40.638 96.9083 40.8203C96.7533 41.0003 96.6758 41.2681 96.6758 41.6235ZM101.1 40.9775L100.228 40.8203C100.326 40.4694 100.495 40.2096 100.734 40.041C100.974 39.8724 101.329 39.7881 101.801 39.7881C102.229 39.7881 102.548 39.8394 102.758 39.9419C102.967 40.0422 103.114 40.1709 103.199 40.3281C103.285 40.4831 103.329 40.769 103.329 41.186L103.318 42.3071C103.318 42.6261 103.333 42.862 103.363 43.0146C103.395 43.165 103.453 43.3268 103.537 43.5H102.587C102.562 43.4362 102.531 43.3416 102.495 43.2163C102.479 43.1593 102.467 43.1217 102.46 43.1035C102.296 43.263 102.121 43.3826 101.934 43.4624C101.747 43.5422 101.548 43.582 101.336 43.582C100.962 43.582 100.667 43.4806 100.451 43.2778C100.236 43.075 100.129 42.8187 100.129 42.5088C100.129 42.3037 100.178 42.1214 100.276 41.9619C100.374 41.8001 100.511 41.6771 100.686 41.5928C100.864 41.5062 101.119 41.431 101.452 41.3672C101.901 41.2829 102.212 41.2043 102.385 41.1313V41.0356C102.385 40.8511 102.34 40.7201 102.248 40.6426C102.157 40.5628 101.985 40.5229 101.732 40.5229C101.561 40.5229 101.428 40.5571 101.332 40.6255C101.237 40.6916 101.159 40.8089 101.1 40.9775ZM102.385 41.7568C102.262 41.7979 102.067 41.8468 101.801 41.9038C101.534 41.9608 101.36 42.0166 101.278 42.0713C101.152 42.1602 101.09 42.2729 101.09 42.4097C101.09 42.5441 101.14 42.6603 101.24 42.7583C101.34 42.8563 101.468 42.9053 101.623 42.9053C101.796 42.9053 101.961 42.8483 102.119 42.7344C102.235 42.6478 102.311 42.5418 102.348 42.4165C102.373 42.3345 102.385 42.1784 102.385 41.9482V41.7568ZM107.931 43.5H106.97V41.6475C106.97 41.2555 106.95 41.0026 106.909 40.8887C106.868 40.7725 106.8 40.6825 106.707 40.6187C106.616 40.5549 106.505 40.5229 106.375 40.5229C106.209 40.5229 106.06 40.5685 105.928 40.6597C105.795 40.7508 105.704 40.8716 105.654 41.022C105.606 41.1724 105.582 41.4504 105.582 41.856V43.5H104.622V39.8701H105.514V40.4033C105.831 39.9932 106.23 39.7881 106.71 39.7881C106.922 39.7881 107.116 39.8268 107.291 39.9043C107.467 39.9795 107.599 40.0763 107.688 40.1948C107.779 40.3133 107.842 40.4478 107.876 40.5981C107.912 40.7485 107.931 40.9639 107.931 41.2441V43.5ZM108.803 39.8701H109.825L110.694 42.4473L111.541 39.8701H112.536L111.254 43.3633L111.025 43.9956C110.941 44.2075 110.86 44.3693 110.782 44.481C110.707 44.5926 110.62 44.6826 110.519 44.751C110.421 44.8216 110.299 44.8763 110.154 44.915C110.01 44.9538 109.847 44.9731 109.665 44.9731C109.48 44.9731 109.299 44.9538 109.121 44.915L109.036 44.1631C109.186 44.1927 109.322 44.2075 109.443 44.2075C109.666 44.2075 109.831 44.1414 109.938 44.0093C110.045 43.8794 110.127 43.7131 110.184 43.5103L108.803 39.8701Z" fill="#444444"/>
<path d="M142.672 42V41H115.872V42H142.672Z" fill="#444444"/>
<path d="M50.5979 21.5625L49.801 29H30.9885V28.4219H31.6916C32.3062 28.4219 32.801 28.3125 33.176 28.0938C33.4468 27.9479 33.6551 27.6979 33.801 27.3438C33.9156 27.0938 33.9729 26.4375 33.9729 25.375V11.4375C33.9729 10.3542 33.9156 9.67708 33.801 9.40625C33.6864 9.13542 33.452 8.90104 33.0979 8.70312C32.7541 8.49479 32.2854 8.39062 31.6916 8.39062H30.9885V7.8125H42.2854V8.39062H41.3635C40.7489 8.39062 40.2541 8.5 39.8791 8.71875C39.6083 8.86458 39.3947 9.11458 39.2385 9.46875C39.1239 9.71875 39.0666 10.375 39.0666 11.4375V24.9375C39.0666 26.0208 39.1291 26.7135 39.2541 27.0156C39.3791 27.3073 39.6239 27.526 39.9885 27.6719C40.2489 27.7656 40.8791 27.8125 41.8791 27.8125H43.6447C44.7697 27.8125 45.7072 27.6146 46.4572 27.2188C47.2072 26.8229 47.8531 26.1979 48.3947 25.3438C48.9468 24.4896 49.4676 23.2292 49.9572 21.5625H50.5979ZM63.5916 21.1719H55.576C55.6697 23.1094 56.1854 24.6406 57.1229 25.7656C57.8416 26.6302 58.7062 27.0625 59.7166 27.0625C60.3416 27.0625 60.9093 26.8906 61.4197 26.5469C61.9301 26.1927 62.477 25.5625 63.0604 24.6562L63.5916 25C62.7999 26.6146 61.9249 27.7604 60.9666 28.4375C60.0083 29.1042 58.8989 29.4375 57.6385 29.4375C55.4718 29.4375 53.8312 28.6042 52.7166 26.9375C51.8208 25.5938 51.3729 23.9271 51.3729 21.9375C51.3729 19.5 52.0291 17.5625 53.3416 16.125C54.6645 14.6771 56.2114 13.9531 57.9822 13.9531C59.4614 13.9531 60.7426 14.5625 61.826 15.7812C62.9197 16.9896 63.5083 18.7865 63.5916 21.1719ZM59.7479 20.125C59.7479 18.4479 59.6541 17.2969 59.4666 16.6719C59.2895 16.0469 59.0083 15.5729 58.6229 15.25C58.4041 15.0625 58.1124 14.9688 57.7479 14.9688C57.2062 14.9688 56.7635 15.2344 56.4197 15.7656C55.8051 16.6927 55.4979 17.9635 55.4979 19.5781V20.125H59.7479ZM71.8979 26.8438C70.1166 28.4167 68.5176 29.2031 67.101 29.2031C66.2676 29.2031 65.5749 28.9323 65.0229 28.3906C64.4708 27.8385 64.1947 27.151 64.1947 26.3281C64.1947 25.2135 64.6739 24.2135 65.6322 23.3281C66.5906 22.4323 68.6791 21.2448 71.8979 19.7656V18.2969C71.8979 17.1927 71.8354 16.5 71.7104 16.2188C71.5958 15.9271 71.3718 15.6771 71.0385 15.4688C70.7051 15.25 70.3301 15.1406 69.9135 15.1406C69.2364 15.1406 68.6791 15.2917 68.2416 15.5938C67.9708 15.7812 67.8354 16 67.8354 16.25C67.8354 16.4688 67.9812 16.7396 68.2729 17.0625C68.6687 17.5104 68.8666 17.9427 68.8666 18.3594C68.8666 18.8698 68.6739 19.3073 68.2885 19.6719C67.9135 20.026 67.4187 20.2031 66.8041 20.2031C66.1479 20.2031 65.5958 20.0052 65.1479 19.6094C64.7104 19.2135 64.4916 18.75 64.4916 18.2188C64.4916 17.4688 64.7885 16.7552 65.3822 16.0781C65.976 15.3906 66.8041 14.8646 67.8666 14.5C68.9291 14.1354 70.0333 13.9531 71.1791 13.9531C72.5645 13.9531 73.6583 14.25 74.4604 14.8438C75.2729 15.4271 75.7989 16.0625 76.0385 16.75C76.1843 17.1875 76.2572 18.1927 76.2572 19.7656V25.4375C76.2572 26.1042 76.2833 26.526 76.3354 26.7031C76.3874 26.8698 76.4656 26.9948 76.5697 27.0781C76.6739 27.1615 76.7937 27.2031 76.9291 27.2031C77.1999 27.2031 77.476 27.0104 77.7572 26.625L78.226 27C77.7051 27.7708 77.1635 28.3333 76.601 28.6875C76.0489 29.0312 75.4187 29.2031 74.7104 29.2031C73.877 29.2031 73.226 29.0104 72.7572 28.625C72.2885 28.2292 72.002 27.6354 71.8979 26.8438ZM71.8979 25.7031V20.8125C70.6374 21.5521 69.6999 22.3438 69.0854 23.1875C68.6791 23.75 68.476 24.3177 68.476 24.8906C68.476 25.3698 68.6479 25.7917 68.9916 26.1562C69.252 26.4375 69.6166 26.5781 70.0854 26.5781C70.6062 26.5781 71.2104 26.2865 71.8979 25.7031ZM84.2041 14.3906V16.2812C84.9541 15.4688 85.6729 14.8802 86.3604 14.5156C87.0479 14.1406 87.7874 13.9531 88.5791 13.9531C89.527 13.9531 90.3135 14.2188 90.9385 14.75C91.5635 15.2708 91.9801 15.9219 92.1885 16.7031C92.3551 17.2969 92.4385 18.4375 92.4385 20.125V25.8125C92.4385 26.9375 92.5374 27.6406 92.7354 27.9219C92.9437 28.1927 93.3708 28.3646 94.0166 28.4375V29H86.626V28.4375C87.1781 28.3646 87.5739 28.1354 87.8135 27.75C87.9801 27.4896 88.0635 26.8438 88.0635 25.8125V19.3125C88.0635 18.1146 88.0166 17.3594 87.9229 17.0469C87.8291 16.7344 87.6676 16.4948 87.4385 16.3281C87.2197 16.151 86.9749 16.0625 86.7041 16.0625C85.8083 16.0625 84.9749 16.7031 84.2041 17.9844V25.8125C84.2041 26.9062 84.3031 27.599 84.501 27.8906C84.7093 28.1823 85.0895 28.3646 85.6416 28.4375V29H78.251V28.4375C78.8656 28.375 79.3031 28.1771 79.5635 27.8438C79.7406 27.6146 79.8291 26.9375 79.8291 25.8125V17.5625C79.8291 16.4583 79.7249 15.7708 79.5166 15.5C79.3187 15.2292 78.8968 15.0521 78.251 14.9688V14.3906H84.2041ZM113.557 7.8125V13.5469H112.995C112.661 12.224 112.292 11.276 111.885 10.7031C111.479 10.1198 110.922 9.65625 110.213 9.3125C109.818 9.125 109.125 9.03125 108.135 9.03125H106.557V25.375C106.557 26.4583 106.615 27.1354 106.729 27.4062C106.854 27.6771 107.088 27.9167 107.432 28.125C107.786 28.3229 108.266 28.4219 108.87 28.4219H109.573V29H98.4791V28.4219H99.1822C99.7968 28.4219 100.292 28.3125 100.667 28.0938C100.937 27.9479 101.151 27.6979 101.307 27.3438C101.422 27.0938 101.479 26.4375 101.479 25.375V9.03125H99.9478C98.5208 9.03125 97.4843 9.33333 96.8385 9.9375C95.9322 10.7812 95.3593 11.9844 95.1197 13.5469H94.526V7.8125H113.557ZM123.629 21.1719H115.613C115.707 23.1094 116.223 24.6406 117.16 25.7656C117.879 26.6302 118.744 27.0625 119.754 27.0625C120.379 27.0625 120.947 26.8906 121.457 26.5469C121.968 26.1927 122.515 25.5625 123.098 24.6562L123.629 25C122.837 26.6146 121.962 27.7604 121.004 28.4375C120.046 29.1042 118.936 29.4375 117.676 29.4375C115.509 29.4375 113.869 28.6042 112.754 26.9375C111.858 25.5938 111.41 23.9271 111.41 21.9375C111.41 19.5 112.067 17.5625 113.379 16.125C114.702 14.6771 116.249 13.9531 118.02 13.9531C119.499 13.9531 120.78 14.5625 121.863 15.7812C122.957 16.9896 123.546 18.7865 123.629 21.1719ZM119.785 20.125C119.785 18.4479 119.692 17.2969 119.504 16.6719C119.327 16.0469 119.046 15.5729 118.66 15.25C118.442 15.0625 118.15 14.9688 117.785 14.9688C117.244 14.9688 116.801 15.2344 116.457 15.7656C115.843 16.6927 115.535 17.9635 115.535 19.5781V20.125H119.785ZM133.685 27.4688C133.05 28.1354 132.456 28.6042 131.904 28.875C131.175 29.25 130.415 29.4375 129.623 29.4375C127.79 29.4375 126.342 28.6198 125.279 26.9844C124.435 25.6823 124.013 24.125 124.013 22.3125C124.013 20.8021 124.331 19.3854 124.967 18.0625C125.612 16.7292 126.493 15.7135 127.607 15.0156C128.732 14.3073 129.92 13.9531 131.17 13.9531C132.003 13.9531 132.743 14.0938 133.388 14.375C134.045 14.6562 134.607 15.0833 135.076 15.6562L137.529 13.9531H138.06V32.875C138.06 33.8333 138.144 34.4323 138.31 34.6719C138.581 35.0573 139.128 35.2552 139.951 35.2656V35.8438H131.513V35.2656C132.159 35.2656 132.628 35.1927 132.92 35.0469C133.211 34.901 133.409 34.7083 133.513 34.4688C133.628 34.2292 133.685 33.7396 133.685 33V27.4688ZM133.685 26.0469V20.0312C133.685 18.3542 133.592 17.2448 133.404 16.7031C133.227 16.1615 132.894 15.6927 132.404 15.2969C132.154 15.099 131.836 15 131.451 15C130.659 15 130.045 15.349 129.607 16.0469C128.92 17.1198 128.576 19.1146 128.576 22.0312C128.576 24.2708 128.873 25.8438 129.467 26.75C129.873 27.3646 130.399 27.6719 131.045 27.6719C131.42 27.6719 131.842 27.5417 132.31 27.2812C132.79 27.0208 133.248 26.6094 133.685 26.0469Z" fill="#2B308B"/>
<path d="M11.4521 5.44861H16.7556C16.7556 5.44861 16.5155 16.3567 16.5155 18.8276C16.5155 18.8276 16.3971 20.6958 17.6606 21.1177C19.6493 22.2627 22.4195 21.6601 22.9618 21.5396C22.9618 21.5396 23.0835 24.9144 22.9016 26.3005C22.8664 26.5684 21.1539 26.6019 21.1539 26.6019C21.1539 26.6019 19.8249 26.6738 18.924 26.6621C16.9429 26.6364 15.3095 26.7827 13.4409 25.0952C11.5723 23.4078 11.3306 20.274 11.5716 17.8031C11.5748 17.8031 11.4521 5.44861 11.4521 5.44861Z" fill="#2B308B"/>
<path d="M20.3037 9.18811C18.2342 9.87842 16.0449 10.9279 13.9014 12.3199C6.88947 16.8735 3.01512 23.3518 5.24707 26.7887C7.14133 29.7048 12.8231 29.4927 18.7852 26.5797C18.6663 26.6562 18.5483 26.7348 18.4277 26.8102C10.9865 31.46 3.0353 32.1604 0.668945 28.3737C-1.69733 24.5868 2.41712 17.7472 9.8584 13.0973C13.4497 10.8532 17.1601 9.53175 20.3037 9.18811Z" fill="#9F1C21"/>
</svg>
